<svg width="19" height="19" viewBox="0 0 19 19" fill="none" xmlns="http://www.w3.org/2000/svg">
<path d="M10.7685 13.3864C10.5743 13.4045 10.3793 13.3607 10.2114 13.2612C10.0888 13.1353 10.0301 12.9606 10.0517 12.7862C10.0562 12.641 10.0735 12.4965 10.1035 12.3544C10.1325 12.1913 10.1699 12.0299 10.2157 11.8707L10.7253 10.1175C10.7778 9.9445 10.8126 9.76652 10.8289 9.58639C10.8289 9.39209 10.8548 9.2582 10.8548 9.18049C10.8657 8.83415 10.7178 8.5018 10.4532 8.27799C10.1278 8.02817 9.7226 7.90538 9.31325 7.93254C9.0199 7.93696 8.72881 7.98498 8.4496 8.07504C8.14445 8.17004 7.82345 8.28374 7.48665 8.41619L7.33984 8.98619C7.43915 8.95164 7.56009 8.91278 7.69825 8.86959C7.83006 8.83055 7.9667 8.81018 8.10415 8.80914C8.29697 8.78825 8.49105 8.8356 8.65255 8.94299C8.76225 9.07388 8.81372 9.24391 8.79505 9.41369C8.79457 9.5589 8.77865 9.70366 8.74755 9.84549C8.71731 9.99664 8.67845 10.1564 8.63095 10.3248L8.1171 12.0866C8.07569 12.2504 8.04255 12.4161 8.0178 12.5832C7.99761 12.7263 7.98751 12.8705 7.98755 13.015C7.98544 13.3637 8.14489 13.6938 8.41936 13.9089C8.74978 14.1626 9.1608 14.2883 9.57661 14.263C9.8694 14.269 10.1612 14.2267 10.4403 14.1377C10.685 14.0542 11.0117 13.9348 11.4205 13.7793L11.5587 13.2352C11.448 13.2812 11.3339 13.3187 11.2176 13.3475C11.0704 13.3811 10.9193 13.3941 10.7685 13.3864Z" fill="#999999"/>
<path d="M11.308 5.07376C11.073 4.85793 10.7634 4.74182 10.4444 4.74991C10.1256 4.74271 9.81625 4.85871 9.58075 5.07376C9.1491 5.44597 9.10089 6.09765 9.47314 6.52934C9.50631 6.56782 9.54227 6.60378 9.58075 6.63696C10.0725 7.07681 10.8163 7.07681 11.308 6.63696C11.7397 6.26108 11.7849 5.60647 11.409 5.17481C11.3778 5.13885 11.344 5.10508 11.308 5.07376Z" fill="#999999"/>
<path d="M9.5 0C4.25329 0 0 4.25329 0 9.5C0 14.7467 4.25329 19 9.5 19C14.7467 19 19 14.7467 19 9.5C19 4.25329 14.7467 0 9.5 0ZM9.5 18.1364C4.73026 18.1364 0.863647 14.2697 0.863647 9.5C0.863647 4.73026 4.73026 0.863647 9.5 0.863647C14.2697 0.863647 18.1364 4.73026 18.1364 9.5C18.1364 14.2697 14.2697 18.1364 9.5 18.1364Z" fill="#999999"/>
</svg>
