<svg width="67" height="58" viewBox="0 0 67 58" fill="none" xmlns="http://www.w3.org/2000/svg">
<path d="M17.3308 7.04892L17.3308 7.04928C17.329 7.89097 18.0126 8.58574 18.8745 8.59802H18.8759C19.7357 8.58915 20.4229 7.89659 20.4249 7.05301L17.3308 7.04892ZM17.3308 7.04892C17.332 6.20516 18.0194 5.5121 18.8789 5.50391M17.3308 7.04892L18.8789 5.50391M18.8789 5.50391H18.8807C19.742 5.51551 20.4261 6.2099 20.4249 7.05293L18.8789 5.50391Z" stroke="white"/>
<path d="M28.8816 46.6294L28.8816 46.6293L33.6167 24.1485L28.8816 46.6294ZM28.8816 46.6294C28.691 47.5343 29.2701 48.4222 30.1745 48.6128L30.1746 48.6128C31.0797 48.8033 31.9667 48.2247 32.1579 47.3201L32.158 47.3197M28.8816 46.6294L32.158 47.3197M32.158 47.3197L36.8927 24.838C37.0833 23.9339 36.505 23.0452 35.5998 22.8545L32.158 47.3197ZM15.9956 35.2584L17.0297 34.3778L24.6264 27.9086L24.6264 27.9086C25.3308 27.3088 26.3876 27.3936 26.9866 28.0973L26.9868 28.0974C27.5854 28.8013 27.5026 29.8579 26.7975 30.4578C26.7974 30.4579 26.7973 30.458 26.7972 30.4581L20.6977 35.6531L26.7985 40.848L26.7989 40.8484C27.5019 41.4483 27.5864 42.5041 26.9871 43.2081C26.3883 43.9116 25.331 43.9967 24.6269 43.3968C24.6269 43.3967 24.6268 43.3966 24.6267 43.3966L17.0306 36.9279L15.9956 35.2584ZM15.9956 35.2584H16.4886M15.9956 35.2584H16.4886M16.4886 35.2584C16.4575 35.3864 16.4414 35.5189 16.4414 35.6532C16.4414 36.1433 16.6564 36.6096 17.0303 36.9276L16.4886 35.2584ZM45.724 35.6532L39.6242 40.848C39.6242 40.848 39.6242 40.848 39.6242 40.848C38.9194 41.4482 38.8359 42.5044 39.4351 43.2081C40.0341 43.9118 41.0909 43.9966 41.7952 43.3968L41.4711 43.0161L41.7953 43.3968L49.3916 36.9279C49.3916 36.9278 49.3917 36.9277 49.3918 36.9276C49.3918 36.9276 49.3919 36.9276 49.3919 36.9276C49.7658 36.6096 49.9808 36.1433 49.9808 35.6532C49.9808 35.1621 49.7654 34.6967 49.3924 34.3782L49.3919 34.3778L41.7953 27.9086L41.7952 27.9086C41.0908 27.3088 40.034 27.3936 39.435 28.0973L39.4349 28.0974C38.8363 28.8013 38.9191 29.8579 39.6242 30.4578C39.6243 30.4579 39.6244 30.458 39.6245 30.4581L45.724 35.6532ZM35.5997 22.8545C34.6955 22.664 33.8069 23.2429 33.6168 24.1481L35.5997 22.8545Z" stroke="white"/>
<path d="M12.9708 5.00391H12.9644C12.9642 5.00391 12.964 5.00392 12.9637 5.00392L12.9708 5.00391ZM12.9708 5.00391V5.26323V5.00391ZM12.971 5.50391H12.9708H12.971ZM12.971 5.50391C12.9696 5.50394 12.9683 5.50398 12.9669 5.50403C12.9635 5.50391 12.9601 5.5038 12.9567 5.50371L12.971 5.50391ZM12.9716 5.50389V5.29565L12.9768 5.50375C12.9751 5.50379 12.9734 5.50384 12.9716 5.50389ZM14.5118 7.05411C14.5099 7.87706 13.8352 8.57121 12.9617 8.59791L14.5118 7.05411Z" stroke="white"/>
<path d="M0.5 5.5354C0.502998 2.75601 2.75601 0.502998 5.5354 0.5H60.8863C63.6657 0.502998 65.9188 2.75614 65.9217 5.53565V12.5098V53.6784C65.9217 54.5025 65.4067 55.4528 64.4563 56.2173C63.5167 56.973 62.2034 57.5 60.7294 57.5H5.45882C2.43702 57.5 0.5 55.8029 0.5 53.6784V12.5098V5.5354Z" stroke="white"/>
<path d="M5.50415 7.04776L5.50415 7.04812C5.50236 7.87768 6.17753 8.57317 7.04815 8.59794C7.91878 8.57573 8.59628 7.88269 8.59827 7.0526L5.50415 7.04776ZM5.50415 7.04776C5.50535 6.21797 6.18426 5.52425 7.0534 5.50396M5.50415 7.04776L7.0534 5.50396M7.0534 5.50396C7.92337 5.52751 8.5994 6.22298 8.59827 7.05249L7.0534 5.50396Z" stroke="white"/>
</svg>
