<svg width="58" height="58" viewBox="0 0 58 58" fill="none" xmlns="http://www.w3.org/2000/svg">
<path d="M27.0435 26.1181V19.7857H32.629C34.3744 19.7857 35.7951 21.2066 35.7951 22.9519C35.7951 24.6973 34.3743 26.1181 32.629 26.1181H27.0435Z" stroke="white" stroke-width="1.00108"/>
<path d="M8.85256 8.85244L8.85256 8.85243C19.9891 -2.28426 38.0125 -2.2826 49.1475 8.85243C60.2843 19.989 60.2826 38.0126 49.1475 49.1475C38.011 60.2842 19.9876 60.2825 8.85256 49.1475C-2.28435 38.0109 -2.28258 19.9873 8.85256 8.85244ZM21.2793 16.9035V26.1179H19.3229C17.7312 26.1179 16.4409 27.4082 16.4409 28.9999C16.4409 30.5916 17.7312 31.8819 19.3229 31.8819H21.2793V33.3757H19.3229C17.7312 33.3757 16.4409 34.666 16.4409 36.2577C16.4409 37.8494 17.7312 39.1397 19.3229 39.1397H21.2793V41.0963C21.2793 42.688 22.5697 43.9783 24.1613 43.9783C25.753 43.9783 27.0434 42.688 27.0434 41.0963V39.1397H31.4192C33.0109 39.1397 34.3012 37.8494 34.3012 36.2577C34.3012 34.666 33.0109 33.3757 31.4192 33.3757H27.0434V31.8819H32.6288C37.5535 31.8819 41.559 27.8764 41.559 22.9517C41.559 18.0271 37.5533 14.0215 32.6288 14.0215H24.1613C22.5697 14.0215 21.2793 15.3118 21.2793 16.9035Z" stroke="white" stroke-width="1.00108"/>
</svg>
