<svg width="92" height="86" viewBox="0 0 92 86" fill="none" xmlns="http://www.w3.org/2000/svg">
<path d="M24.0069 30.195H23.5069V30.695V33.9789V34.4789H24.0069H27.2908H27.7908V33.9789V30.695V30.195H27.2908H24.0069ZM17.4391 30.195H16.9391V30.695V33.9789V34.4789H17.4391H20.723H21.223V33.9789V30.695V30.195H20.723H17.4391ZM10.8713 30.195H10.3713V30.695V33.9789V34.4789H10.8713H14.1552H14.6552V33.9789V30.695V30.195H14.1552H10.8713ZM30.5748 41.0467H31.0748V40.5467V37.2628V36.7628H30.5748H10.8713H10.3713V37.2628V40.5467V41.0467H10.8713H30.5748Z" stroke="white"/>
<path d="M55.6485 41.0454L55.6485 41.0455L49.3098 46.3275V42.691C49.3098 42.1229 49.0842 41.5781 48.6825 41.1764C48.2808 40.7747 47.736 40.549 47.1679 40.549H35.6747C35.3718 40.5487 35.0814 40.4282 34.8672 40.214C34.6531 39.9999 34.5326 39.7096 34.5322 39.4068V37.3358L48.7494 28.8054L62.3992 37.9051C62.3992 37.9051 62.3992 37.9051 62.3992 37.9051C62.7134 38.1146 63.0774 38.2373 63.4543 38.2608C63.8312 38.2844 64.2076 38.2078 64.5454 38.0389L64.5454 38.0389L73.2853 33.6689L81.149 38.9114V39.4065C81.1487 39.7094 81.0282 39.9998 80.814 40.214C80.5998 40.4282 80.3094 40.5487 80.0065 40.549H57.0196C56.5186 40.5491 56.0334 40.7247 55.6485 41.0454Z" stroke="white"/>
<path d="M52.0773 79.9321H52.0787H78.812V82.7155C78.8111 83.4537 78.5175 84.1614 77.9955 84.6834C77.4736 85.2054 76.766 85.499 76.0279 85.5C76.0277 85.5 76.0276 85.5 76.0275 85.5H3.78255C3.78243 85.5 3.7823 85.5 3.78217 85.5C3.04408 85.499 2.33649 85.2054 1.81458 84.6834C1.29264 84.1615 0.998998 83.4539 0.998047 82.7158V79.9321L27.7313 79.9321L27.7327 79.9321C28.1873 79.9309 28.6377 80.0199 29.0577 80.1938C29.4777 80.3678 29.8591 80.6234 30.1796 80.9458L30.1796 80.9458C30.8977 81.6678 31.7519 82.2403 32.6927 82.6299C33.6332 83.0196 34.6417 83.2188 35.6598 83.2161H44.1503C45.1683 83.2188 46.1768 83.0196 47.1174 82.6299C48.0582 82.2403 48.9123 81.6678 49.6304 80.9458L49.2763 80.5936L49.6304 80.9458C49.951 80.6234 50.3323 80.3678 50.7523 80.1938C51.1724 80.0199 51.6227 79.9309 52.0773 79.9321Z" stroke="white"/>
<path d="M81.149 16.9151V33.7629L74.6275 29.4147C74.6275 29.4147 74.6275 29.4146 74.6275 29.4146C74.3133 29.2051 73.9493 29.0824 73.5724 29.0589C73.1955 29.0354 72.819 29.1119 72.4813 29.2808L72.4812 29.2808L63.7414 33.6508L49.9981 24.4885L49.9979 24.4884C49.6604 24.2636 49.266 24.1392 48.8605 24.1297C48.4551 24.1203 48.0553 24.2261 47.7076 24.4349L34.5322 32.34V9.85222C34.5326 9.5494 34.6531 9.2591 34.8672 9.04497C35.0814 8.83084 35.3717 8.71037 35.6745 8.70996H60.0582L55.5364 13.2318C55.536 13.2322 55.5356 13.2325 55.5353 13.2329C54.9541 13.8077 54.4923 14.4917 54.1762 15.2455C53.86 15.9999 53.696 16.8093 53.6937 17.6272C53.6913 18.4451 53.8507 19.2554 54.1626 20.0116C54.4745 20.7677 54.9329 21.4547 55.5112 22.033C56.0896 22.6114 56.7766 23.0698 57.5327 23.3817C58.2888 23.6936 59.0991 23.853 59.917 23.8507C60.735 23.8484 61.5444 23.6844 62.2987 23.3682C63.0526 23.0521 63.7366 22.5902 64.3115 22.0091C64.3118 22.0087 64.3121 22.0084 64.3125 22.0081L72.0794 14.241C74.8126 15.9197 77.9426 16.8425 81.149 16.9151ZM43.063 10.9939L43.0624 10.9939C41.4064 10.9958 39.8187 11.6545 38.6477 12.8255C37.4767 13.9965 36.818 15.5841 36.8161 17.2402V17.2407C36.8161 18.4762 37.1825 19.684 37.8689 20.7113C38.5553 21.7386 39.531 22.5393 40.6724 23.0121C41.8139 23.4849 43.0699 23.6086 44.2817 23.3675C45.4935 23.1265 46.6065 22.5316 47.4802 21.6579C48.3538 20.7843 48.9488 19.6712 49.1898 18.4594C49.4308 17.2477 49.3071 15.9916 48.8343 14.8502C48.3615 13.7087 47.5608 12.7331 46.5336 12.0467C45.5063 11.3602 44.2985 10.9939 43.063 10.9939Z" stroke="white"/>
<path d="M38.3327 54.6755L38.3327 54.6755L41.2441 57.5867H39.8473C39.2792 57.5867 38.7344 57.8124 38.3327 58.2141L38.6863 58.5676L38.3327 58.2141C37.931 58.6158 37.7054 59.1606 37.7054 59.7287V67.9379C37.705 68.2408 37.5845 68.5312 37.3703 68.7454C37.1562 68.9596 36.8658 69.0801 36.5628 69.0804H7.00873C6.70582 69.0801 6.41541 68.9596 6.20122 68.7454C5.9871 68.5313 5.86662 68.241 5.86621 67.9382V48.2353C5.86662 47.9325 5.9871 47.6422 6.20122 47.428C6.41535 47.2139 6.70565 47.0934 7.00847 47.093H36.5631C36.8659 47.0934 37.1562 47.2139 37.3703 47.428C37.5845 47.6422 37.705 47.9326 37.7054 48.2355V53.1608C37.7053 53.4421 37.7607 53.7207 37.8684 53.9805C37.976 54.2404 38.1338 54.4766 38.3327 54.6755ZM15.2193 55.9448H14.7193V56.4448V59.7287V60.2287H15.2193H34.9228H35.4228V59.7287V56.4448V55.9448H34.9228H15.2193ZM8.6515 55.9448H8.1515V56.4448V59.7287V60.2287H8.6515H11.9354H12.4354V59.7287V56.4448V55.9448H11.9354H8.6515Z" stroke="white"/>
<path d="M64.3421 4.42587H52.593L53.18 3.44736C53.1801 3.44715 53.1803 3.44693 53.1804 3.44672C53.722 2.55016 54.4852 1.8081 55.3967 1.29201C56.3082 0.775906 57.3372 0.503152 58.3846 0.5H91.0007V8.94928C88.7398 11.0375 85.8473 12.317 82.7771 12.5832C79.6361 12.8555 76.4959 12.051 73.8728 10.3021L73.8728 10.3021L72.9855 9.71054C72.5735 9.43585 72.079 9.31241 71.5862 9.36123C71.0934 9.41004 70.6328 9.62808 70.2826 9.97826C70.2826 9.97827 70.2826 9.97828 70.2826 9.97829L61.2826 18.9785C61.2824 18.9787 61.2822 18.9789 61.2819 18.9792C60.9536 19.3046 60.5194 19.5017 60.0582 19.5346C59.5971 19.5675 59.1394 19.434 58.7681 19.1585C58.5484 18.9934 58.3666 18.783 58.2351 18.5417C58.1033 18.2999 58.0251 18.0327 58.0056 17.7581C57.9861 17.4835 58.0258 17.2079 58.1221 16.9499C58.2184 16.692 58.369 16.4578 58.5636 16.2631L66.7441 8.08245L70.028 4.79854L70.3815 4.44498L70.028 4.09143L67.7058 1.76929L67.3523 1.41574L66.9987 1.76929L64.3421 4.42587Z" stroke="white"/>
<path d="M51.4669 62.5126L54.3783 59.6014L54.3783 59.6013C54.5772 59.4024 54.735 59.1663 54.8426 58.9064C54.9503 58.6465 55.0057 58.368 55.0057 58.0867C55.0057 58.0867 55.0057 58.0867 55.0057 58.0867L55.0057 48.2355C55.0057 48.2354 55.0057 48.2353 55.0057 48.2352C55.0061 47.9324 55.1266 47.6421 55.3407 47.428C55.5548 47.2139 55.8451 47.0934 56.1479 47.093H85.7026C86.0054 47.0934 86.2957 47.2139 86.5098 47.428C86.724 47.6422 86.8445 47.9326 86.8448 48.2355V67.9379C86.8445 68.2408 86.724 68.5312 86.5098 68.7454C86.2956 68.9596 86.0052 69.0801 85.7023 69.0804H56.1482C55.8453 69.0801 55.5549 68.9596 55.3407 68.7454C55.1266 68.5313 55.0061 68.2411 55.0057 67.9383C55.0057 67.9382 55.0057 67.938 55.0057 67.9379L55.0057 64.6546C55.0057 64.0865 54.78 63.5417 54.3783 63.14C53.9766 62.7383 53.4318 62.5126 52.8637 62.5126H51.4669ZM57.7896 50.9996H57.2896V51.4996V54.7835V55.2835H57.7896H74.2092H74.7092V54.7835V51.4996V50.9996H74.2092H57.7896ZM84.0609 63.5512H84.5609V63.0512V59.7673V59.2673H84.0609H57.7896H57.2896V59.7673V63.0512V63.5512H57.7896H84.0609ZM84.0609 55.2835H84.5609V54.7835V51.4996V50.9996H84.0609H77.4931H76.9931V51.4996V54.7835V55.2835H77.4931H84.0609Z" stroke="white"/>
</svg>
