<svg width="64" height="59" viewBox="0 0 64 59" fill="none" xmlns="http://www.w3.org/2000/svg">
<path d="M59.4392 1.76292V35.8161H8.81459H0.5V1.763C0.5 1.76297 0.5 1.76294 0.5 1.76292C0.500085 1.34761 0.636313 1.04042 0.838383 0.838314C1.04045 0.63622 1.34757 0.499985 1.7629 0.5H1.76292H58.1763C58.5915 0.500016 58.8987 0.63625 59.1008 0.838362C59.303 1.04047 59.4392 1.34764 59.4392 1.76292ZM0.5 36.8161H8.81459H59.4392V44.0729C59.4392 44.4882 59.303 44.7954 59.1008 44.9975C58.8987 45.1996 58.5915 45.3359 58.1763 45.3359H34.7295H25.2097H1.76292C1.34766 45.3359 1.04047 45.1996 0.838355 44.9975C0.636235 44.7954 0.5 44.4882 0.5 44.0729V36.8161Z" stroke="white"/>
<path d="M25.2094 53.2397V45.6592H34.7291V53.2397M25.2094 53.2397H34.7291M25.2094 53.2397H22.3887C19.7443 53.2397 18.1577 55.7078 18.1577 57.9996H41.7808C41.7808 55.1789 40.0179 53.2397 37.5498 53.2397C35.0817 53.2397 34.7291 53.2397 34.7291 53.2397" stroke="white"/>
<path d="M25.2095 40.8994H32.4374M36.8447 40.8994H37.5499" stroke="white"/>
<path d="M47.4524 29.6191C47.4524 28.7907 48.124 28.1191 48.9524 28.1191H61.5238C62.3522 28.1191 63.0238 28.7907 63.0238 29.6191V52.4763V56.0001C63.0238 56.8285 62.3522 57.5001 61.5238 57.5001H48.9524C48.124 57.5001 47.4524 56.8285 47.4524 56.0001V52.4763V29.6191Z" fill="#0277BD" stroke="white"/>
<rect x="52.6667" y="54.0479" width="5.14286" height="2.38095" rx="1.19048" stroke="white"/>
</svg>
