<svg width="58" height="58" viewBox="0 0 58 58" fill="none" xmlns="http://www.w3.org/2000/svg">
<path d="M29 16.5917C24.5951 16.5917 21.0106 13.0072 21.0106 8.60222C21.0106 4.18194 24.5963 0.499583 29 0.499583C33.403 0.499583 36.9895 4.18132 36.9895 8.60222C36.9895 13.0072 33.405 16.5917 29 16.5917Z" stroke="white" stroke-width="0.999167"/>
<path d="M17.6151 30.1747V28.9764C17.6151 22.6992 22.7228 17.5914 29.0001 17.5914C35.2774 17.5914 40.3852 22.6992 40.3852 28.9764V30.1747H17.6151Z" stroke="white" stroke-width="0.999167"/>
<path d="M34.0934 48.3775H38.9137L29 57.2999L19.0863 48.3776H23.9066H24.4062V47.878V44.2561V43.7565H23.9066H10.8901H10.3905V44.2561V48.8466L0.706516 39.1625L10.3905 29.4786V34.0691V34.5687H10.8901H47.1099H47.6095V34.0691V29.4786L57.2935 39.1625L47.6095 48.8465V44.2559V43.7564H47.1099H34.0934H33.5938V44.2559V47.8779V48.3775H34.0934Z" stroke="white" stroke-width="0.999167"/>
</svg>
