<svg width="58" height="53" viewBox="0 0 58 53" fill="none" xmlns="http://www.w3.org/2000/svg">
<path d="M27.8453 17.0209V13.1949H31.3507C32.4051 13.1949 33.2637 14.0536 33.2637 15.1079C33.2637 16.1623 32.4051 17.0209 31.3507 17.0209H27.8453Z" stroke="white" stroke-width="1.00108"/>
<path d="M15.8213 5.9479L15.8213 5.94789C23.0849 -1.31579 34.8401 -1.31471 42.1027 5.94789L42.4566 5.59396L42.1027 5.9479C49.3664 13.2115 49.3653 24.9668 42.1027 32.2294C34.8391 39.493 23.0839 39.492 15.8213 32.2294C8.55744 24.9657 8.55859 13.2104 15.8213 5.9479ZM23.7089 11.1264V17.0205H22.5922C21.45 17.0205 20.5241 17.9464 20.5241 19.0886C20.5241 20.2308 21.45 21.1567 22.5922 21.1567H23.7089V21.7978H22.5922C21.45 21.7978 20.5241 22.7237 20.5241 23.8659C20.5241 25.0081 21.45 25.934 22.5922 25.934H23.7089V27.0508C23.7089 28.193 24.6348 29.1189 25.777 29.1189C26.9192 29.1189 27.8451 28.193 27.8451 27.0508V25.934H30.5543C31.6965 25.934 32.6224 25.0081 32.6224 23.8659C32.6224 22.7237 31.6965 21.7978 30.5543 21.7978H27.8451V21.1567H31.3505C34.6866 21.1567 37.3997 18.4435 37.3997 15.1074C37.3997 11.7715 34.6865 9.05829 31.3505 9.05829H25.777C24.6348 9.05829 23.7089 9.9842 23.7089 11.1264Z" stroke="white" stroke-width="1.00108"/>
<rect x="0.5" y="30.1201" width="56.9241" height="16.7722" fill="#0277BD" stroke="white"/>
<path d="M31.1059 46.5666C31.9382 45.667 32.8723 46.0193 34.1227 46.2096C35.197 46.3748 36.2548 46.0734 36.1843 45.4932C36.0731 44.5544 35.9165 44.1347 35.5603 42.9188C35.276 41.9518 34.7366 40.2089 34.2457 38.5427C33.588 36.3136 33.3977 35.2785 34.2731 35.0202C35.2165 34.7453 35.7576 36.0858 36.2477 37.9446C36.806 40.0601 37.0996 40.9942 37.264 40.9449C37.5537 40.8619 37.1575 39.9568 37.9154 39.7336C38.8628 39.458 39.0461 40.1987 39.3115 40.1243C39.5769 40.0445 39.4869 39.2944 40.2424 39.0736C41.0019 38.8544 41.3832 39.7892 41.6964 39.6961C42.0065 39.6045 41.9994 39.267 42.4676 39.1331C42.9367 38.9937 44.7015 39.7838 45.7115 43.2343C46.9791 47.5728 45.551 48.3792 45.984 49.8481L40.3254 51.9997C39.8674 50.8981 38.4487 50.8166 37.1935 50.1143C35.929 49.4026 35.0701 48.0159 31.7746 48.0833C30.5351 48.1083 30.5939 47.1202 31.1059 46.5666Z" fill="#0277BD" stroke="white"/>
<path d="M32.4837 36.5548H30.7629M32.8278 35.0061L31.2792 33.8016M33.6882 34.1458L32.8278 32.2529M35.581 34.1458L36.6135 32.5971M36.6135 35.5223L37.9901 35.0061" stroke="white"/>
</svg>
