<svg width="58" height="33" viewBox="0 0 58 33" fill="none" xmlns="http://www.w3.org/2000/svg">
<path d="M35.8654 21.0133L35.8656 21.0134C38.9004 22.6694 40.9576 25.8873 40.9576 29.586V32.2511H17.2136V29.586C17.2136 25.9347 19.2192 22.7502 22.1914 21.0771L22.1916 21.0769C23.6038 20.2809 25.2346 19.8262 26.9735 19.8262H31.1978C32.8894 19.8262 34.4792 20.2561 35.8654 21.0133Z" stroke="white"/>
<path d="M44.259 17.0146H47.7707C53.1348 17.0146 57.5 21.3798 57.5 26.7439V30.5747H45.3559V29.5862C45.3559 25.8048 43.8828 22.2475 41.2095 19.5743C40.7079 19.0726 40.1748 18.6125 39.6144 18.1974C40.9954 17.4429 42.5775 17.0146 44.259 17.0146Z" stroke="white"/>
<path d="M10.2293 17.0146H13.741C15.4629 17.0146 17.0803 17.464 18.4842 18.2521C17.9505 18.6529 17.4423 19.0946 16.9626 19.5743C14.2895 22.2474 12.8151 25.8047 12.8151 29.5862V30.5747H0.5V26.7439C0.5 21.3798 4.86516 17.0146 10.2293 17.0146Z" stroke="white"/>
<path d="M50.6044 13.1152C49.4007 14.4269 47.7918 15.1504 46.0706 15.1647L46.0685 15.1647C46.0525 15.1649 46.036 15.165 46.0199 15.165C42.5415 15.165 39.6513 12.1884 39.6204 8.45029C39.5894 4.69417 42.4579 1.6591 45.9588 1.63021L45.9609 1.63018C45.9769 1.62998 45.9935 1.62988 46.0095 1.62988C49.488 1.62988 52.3782 4.60645 52.4091 8.34459C52.4238 10.1409 51.7808 11.8332 50.6044 13.1152ZM50.6044 13.1152L50.9728 13.4533M50.6044 13.1152L50.9728 13.4533M50.9728 13.4533C52.2372 12.0753 52.9248 10.2597 52.9091 8.34046C52.8761 4.35239 49.7865 1.12988 46.0095 1.12988C45.9915 1.12988 45.9728 1.13 45.9546 1.13022C42.1531 1.1616 39.0873 4.44732 39.1204 8.45442C39.1533 12.4425 42.243 15.665 46.0199 15.665C46.038 15.665 46.0566 15.6649 46.0747 15.6647C47.9388 15.6492 49.6782 14.864 50.9728 13.4533Z" stroke="white"/>
<path d="M11.9292 1.63021L11.9313 1.63018C11.9473 1.62998 11.9639 1.62988 11.9799 1.62988C15.4585 1.62988 18.3487 4.60645 18.3796 8.34459C18.3944 10.1409 17.7513 11.8332 16.5748 13.1152L16.9432 13.4533L16.5748 13.1152C15.3711 14.4269 13.7622 15.1504 12.041 15.1647L12.0389 15.1647C12.0229 15.1649 12.0065 15.165 11.9903 15.165C8.51192 15.165 5.62162 12.1884 5.59082 8.4503L5.59082 8.45029C5.55982 4.69417 8.42837 1.6591 11.9292 1.63021Z" stroke="white"/>
<path d="M25.9131 15.5406L25.9128 15.5404C23.3966 14.2786 21.6382 11.5579 21.6382 8.39754C21.6382 4.01646 25.0049 0.5 29.086 0.5C33.1671 0.5 36.5338 4.01646 36.5338 8.39754C36.5338 11.5579 34.7754 14.2786 32.2592 15.5404L32.2589 15.5406C31.2955 16.0244 30.22 16.2939 29.086 16.2939C27.952 16.2939 26.8765 16.0244 25.9131 15.5406Z" stroke="white"/>
</svg>
