<svg width="59" height="45" viewBox="0 0 59 45" fill="none" xmlns="http://www.w3.org/2000/svg">
<path d="M36.7347 43.5306C48.4792 43.5306 58 34.0098 58 22.2653C58 10.5208 48.4792 1 36.7347 1M36.7347 43.5306C33.6361 43.5306 30.6922 42.8679 28.0372 41.6764C24.9012 40.2691 22.1682 38.1242 20.0589 35.4626M36.7347 43.5306H12.0645M36.7347 1H12.291M36.7347 1C29.9244 1 23.8618 4.20136 19.9698 9.18129M19.9698 9.18129H3.56837M19.9698 9.18129C18.6049 10.9277 17.5069 12.8928 16.7373 15.0153M16.7373 15.0153H8.83595M16.7373 15.0153C16.2452 16.3723 15.8873 17.7937 15.6796 19.2633M15.6796 19.2633C15.5411 20.2441 15.4694 21.2463 15.4694 22.2653C15.4694 23.2843 15.5411 24.2865 15.6796 25.2673M15.6796 19.2633H0M15.6796 25.2673H0M15.6796 25.2673C15.8873 26.7369 16.2452 28.1583 16.7373 29.5153M16.7373 29.5153H8.83595M16.7373 29.5153C17.5236 31.6838 18.6527 33.6881 20.0589 35.4626M20.0589 35.4626H3.68165" stroke="white"/>
<path d="M52.5637 22.2663C52.5637 31.0084 45.4769 38.0952 36.7348 38.0952C27.9928 38.0952 20.906 31.0084 20.906 22.2663C20.906 13.5243 27.9928 6.4375 36.7348 6.4375C45.4769 6.4375 52.5637 13.5243 52.5637 22.2663Z" stroke="white"/>
<path d="M36.7346 11.6298C36.407 11.6298 36.1415 11.3643 36.1415 11.0368V9.72058C36.1415 9.39304 36.4069 9.12758 36.7346 9.12758C37.0623 9.12758 37.3276 9.39299 37.3276 9.72058V11.0367C37.3276 11.3643 37.0621 11.6298 36.7346 11.6298Z" fill="white" stroke="#0277BD" stroke-width="0.538362"/>
<path d="M44.255 14.7453C44.371 14.8612 44.5224 14.919 44.6746 14.919C44.8268 14.919 44.9781 14.8612 45.0939 14.7454L46.0245 13.8148C46.0245 13.8148 46.0245 13.8148 46.0245 13.8148C46.2561 13.5831 46.256 13.2076 46.0245 12.9759C45.7928 12.7445 45.4174 12.7445 45.1857 12.976L45.1856 12.976M44.255 14.7453L45.1856 12.976M44.255 14.7453C44.0235 14.5136 44.0236 14.1382 44.2551 13.9066C44.2551 13.9066 44.2551 13.9065 44.2551 13.9065L45.1856 12.976M44.255 14.7453L45.1856 12.976" fill="white" stroke="#0277BD" stroke-width="0.538362"/>
<path d="M49.2794 22.8586H47.9634C47.6358 22.8586 47.3703 22.5932 47.3703 22.2655C47.3703 21.9379 47.6356 21.6725 47.9634 21.6725H49.2794C49.607 21.6725 49.8725 21.938 49.8725 22.2655C49.8725 22.5931 49.6069 22.8586 49.2794 22.8586Z" fill="white" stroke="#0277BD" stroke-width="0.538362"/>
<path d="M45.1857 31.5549C45.3017 31.6708 45.4531 31.7286 45.6052 31.7286C45.7574 31.7286 45.9087 31.6708 46.0245 31.555L45.1857 31.5549ZM45.1857 31.5549C45.1857 31.5549 45.1857 31.5549 45.1856 31.5549L44.2551 30.6244M45.1857 31.5549L44.2551 30.6244M44.2551 30.6244C44.2551 30.6243 44.2551 30.6243 44.2551 30.6243L44.2551 30.6244ZM44.2551 29.7855C44.4868 29.5541 44.8622 29.5541 45.0939 29.7855C45.0939 29.7856 45.0939 29.7856 45.094 29.7856L46.0245 30.7161L44.2551 29.7855ZM46.0245 30.7161C46.256 30.9478 46.256 31.3233 46.0245 31.5549V30.7161Z" fill="white" stroke="#0277BD" stroke-width="0.538362"/>
<path d="M36.7346 35.4031C36.407 35.4031 36.1415 35.1377 36.1415 34.81V33.494C36.1415 33.1665 36.4069 32.901 36.7346 32.901C37.0623 32.901 37.3276 33.1664 37.3276 33.494V34.81C37.3276 35.1377 37.0622 35.4031 36.7346 35.4031Z" fill="white" stroke="#0277BD" stroke-width="0.538362"/>
<path d="M27.4449 31.5549C27.5607 31.6707 27.712 31.7286 27.8642 31.7286C28.0164 31.7286 28.1678 31.6707 28.2836 31.5549L29.2142 30.6243C29.4458 30.3927 29.4458 30.0172 29.2142 29.7856L27.4449 31.5549ZM27.4449 31.5549L27.2545 31.7453L27.4449 31.5549C27.2132 31.3233 27.2132 30.9478 27.4449 30.7161L28.3755 29.7856C28.3755 29.7856 28.3755 29.7855 28.3755 29.7855C28.607 29.5541 28.9826 29.5541 29.2142 29.7855L27.4449 31.5549Z" fill="white" stroke="#0277BD" stroke-width="0.538362"/>
<path d="M25.5059 22.8586H24.1898C23.8623 22.8586 23.5968 22.5932 23.5968 22.2655C23.5968 21.9379 23.8623 21.6725 24.1898 21.6725H25.5059C25.8335 21.6725 26.0989 21.9379 26.0989 22.2655C26.0989 22.5931 25.8334 22.8586 25.5059 22.8586Z" fill="white" stroke="#0277BD" stroke-width="0.538362"/>
<path d="M28.3755 14.7454C28.4913 14.8612 28.6426 14.919 28.7948 14.919C28.9471 14.919 29.0984 14.8612 29.2142 14.7454C29.4458 14.5137 29.4458 14.1382 29.2142 13.9066L28.2836 12.976C28.2836 12.976 28.2836 12.976 28.2836 12.976C28.052 12.7445 27.6764 12.7445 27.4449 12.976L28.3755 14.7454ZM28.3755 14.7454L27.4449 13.8148M28.3755 14.7454L27.4449 13.8148M27.4449 13.8148C27.2132 13.5831 27.2132 13.2077 27.4449 12.976L27.4449 13.8148Z" fill="white" stroke="#0277BD" stroke-width="0.538362"/>
<path d="M37.3276 21.4035V21.6727H37.5968H40.5089C40.8365 21.6727 41.102 21.9381 41.102 22.2657C41.102 22.5933 40.8365 22.8589 40.5089 22.8589H36.7346C36.407 22.8589 36.1415 22.5934 36.1415 22.2658V15.0018C36.1415 14.6743 36.4069 14.4088 36.7346 14.4088C37.0623 14.4088 37.3276 14.6742 37.3276 15.0018V21.4035Z" fill="white" stroke="#0277BD" stroke-width="0.538362"/>
</svg>
