<svg width="86" height="86" viewBox="0 0 86 86" fill="none" xmlns="http://www.w3.org/2000/svg">
<path d="M12.8643 16.4283L10.2135 19.079L0.671157 7.23948L7.23778 0.672864L19.0774 10.2152L16.4268 12.8658L16.0732 13.2194L16.4268 13.5729L56.0332 53.1795L56.3828 53.5454L56.7445 53.1837L62.1253 47.8028L69.5962 55.2739L55.2722 69.5979L47.8011 62.127L53.182 56.7461L53.5355 56.3925L53.182 56.0389L13.5714 16.4283L13.2178 16.0748L12.8643 16.4283Z" stroke="white"/>
<path d="M68.2069 82.5336L59.5421 73.8688L73.8661 59.5447L82.5311 68.2096C86.4799 72.1585 86.4799 78.5847 82.5311 82.5336C80.6174 84.4474 78.0754 85.5002 75.3691 85.5002C72.6626 85.5002 70.1206 84.4474 68.2069 82.5336Z" stroke="white"/>
<path d="M22.3115 63.6885L22.3117 63.6887C24.7642 66.143 24.7644 70.1213 22.3116 72.5739L22.3115 63.6885ZM22.3115 63.6885C19.8572 61.236 15.8791 61.2358 13.4263 63.6886C10.972 66.1429 10.9718 70.1211 13.4263 72.5739C15.8791 75.0284 19.8573 75.0282 22.3116 72.5739L22.3115 63.6885ZM23.0397 51.5475L23.3286 51.6381L23.5427 51.424L31.785 43.1829L42.8186 54.2165L34.5764 62.4576L34.3623 62.6717L34.4528 62.9607C36.376 69.0975 34.7701 75.7934 30.1489 80.413L30.1488 80.4131C26.7648 83.7988 22.3168 85.492 17.8681 85.492C13.4195 85.492 8.9731 83.7988 5.58733 80.413C2.30667 77.1324 0.5 72.7715 0.5 68.1323C0.5 63.4912 2.30665 59.1322 5.58733 55.8515L5.5874 55.8515C10.207 51.2302 16.9029 49.6244 23.0397 51.5475Z" stroke="white"/>
<path d="M84.3632 10.9595L84.3632 10.9595L83.2377 8.08516L74.7635 16.5594L74.5593 16.7635L74.2805 16.6888L70.6407 15.7129L70.3619 15.6382L70.2872 15.3594L69.3113 11.7196L69.2366 11.4407L69.4408 11.2366L77.9151 2.7638L75.0406 1.63687C68.9385 -0.753092 62.0037 0.694651 57.3724 5.3259C53.1309 9.56747 51.5592 15.7443 53.1633 21.4418L53.2427 21.7238L53.0356 21.9309L43.1807 31.7869L54.2144 42.8205L64.0692 32.9645L64.2763 32.7574L64.5583 32.8368C66.0286 33.2508 67.5282 33.453 69.0198 33.453L84.3632 10.9595ZM84.3632 10.9595C86.7532 17.0618 85.3055 23.9966 80.6742 28.6277L81.0278 28.9812M84.3632 10.9595L81.0278 28.9812M81.0278 28.9812L80.6742 28.6277C77.5266 31.7752 73.3128 33.4513 69.02 33.453L81.0278 28.9812Z" stroke="white"/>
</svg>
