<svg width="58" height="63" viewBox="0 0 58 63" fill="none" xmlns="http://www.w3.org/2000/svg">
<path d="M37.3775 15.3878C37.3775 22.2906 31.76 27.9082 24.8571 27.9082C17.9543 27.9082 12.3367 22.2906 12.3367 15.3878V13.0204C12.3367 6.11758 17.9543 0.5 24.8571 0.5C31.76 0.5 37.3775 6.11758 37.3775 13.0204V15.3878Z" stroke="white"/>
<path fill-rule="evenodd" clip-rule="evenodd" d="M41.5976 36.4687C37.6746 35.384 31.843 34.2242 24.8572 34.2242C17.2276 34.2242 10.9747 35.6077 7.08141 36.7656C3.48944 37.8342 1.08163 41.0619 1.08163 44.8089V53.2651C1.08163 53.3211 1.12766 53.3671 1.18368 53.3671H30.9875C30.9148 52.751 30.8775 52.1245 30.8775 51.4896C30.8775 44.5258 35.3601 38.6099 41.5976 36.4687ZM43.4663 37.0604C36.8776 38.5559 31.9592 44.4483 31.9592 51.4896C31.9592 52.1256 31.9993 52.7522 32.0772 53.3671C32.1234 53.732 32.1829 54.0927 32.2551 54.4487H1.18368C0.530287 54.4487 0 53.9185 0 53.2651V44.8089C0 40.5832 2.72245 36.9339 6.77299 35.7289C10.7407 34.5488 17.0994 33.1426 24.8572 33.1426C32.615 33.1426 38.9737 34.5488 42.9414 35.7289C43.1501 35.791 43.3553 35.8596 43.5568 35.9344C44.1605 36.1586 44.7308 36.4387 45.2626 36.768C44.6521 36.8291 44.0526 36.9274 43.4663 37.0604Z" fill="white"/>
<mask id="path-3-inside-1_604_3880" fill="white">
<path fill-rule="evenodd" clip-rule="evenodd" d="M46.7549 62.735C52.9653 62.735 57.9998 57.7004 57.9998 51.49C57.9998 45.2796 52.9653 40.2451 46.7549 40.2451C40.5445 40.2451 35.51 45.2796 35.51 51.49C35.51 57.7004 40.5445 62.735 46.7549 62.735ZM52.8579 49.1616C53.2063 48.7331 53.1413 48.1032 52.7128 47.7548C52.2842 47.4064 51.6544 47.4714 51.306 47.8999L46.3079 54.0476L43.3884 50.4567C43.0401 50.0281 42.4102 49.9632 41.9817 50.3116C41.5532 50.66 41.4882 51.2898 41.8366 51.7183L45.532 56.2636C45.7219 56.4972 46.0069 56.6328 46.3079 56.6328C46.6089 56.6328 46.8939 56.4972 47.0838 56.2636L52.8579 49.1616Z"/>
</mask>
<path d="M52.7128 47.7548L52.0819 48.5308L52.0819 48.5308L52.7128 47.7548ZM52.8579 49.1616L53.6338 49.7924L53.6338 49.7924L52.8579 49.1616ZM51.306 47.8999L52.0819 48.5308V48.5308L51.306 47.8999ZM46.3079 54.0476L45.532 54.6784L46.3079 55.6328L47.0838 54.6784L46.3079 54.0476ZM43.3884 50.4567L44.1644 49.8258V49.8258L43.3884 50.4567ZM41.9817 50.3116L42.6125 51.0875H42.6125L41.9817 50.3116ZM41.8366 51.7183L42.6125 51.0875L41.8366 51.7183ZM45.532 56.2636L46.3079 55.6328L46.3079 55.6328L45.532 56.2636ZM47.0838 56.2636L46.3079 55.6328L46.3079 55.6328L47.0838 56.2636ZM56.9998 51.49C56.9998 57.1481 52.413 61.735 46.7549 61.735V63.735C53.5176 63.735 58.9998 58.2527 58.9998 51.49H56.9998ZM46.7549 41.2451C52.413 41.2451 56.9998 45.8319 56.9998 51.49H58.9998C58.9998 44.7274 53.5176 39.2451 46.7549 39.2451V41.2451ZM36.51 51.49C36.51 45.8319 41.0968 41.2451 46.7549 41.2451V39.2451C39.9922 39.2451 34.51 44.7274 34.51 51.49H36.51ZM46.7549 61.735C41.0968 61.735 36.51 57.1481 36.51 51.49H34.51C34.51 58.2527 39.9922 63.735 46.7549 63.735V61.735ZM52.0819 48.5308H52.0819L53.6338 49.7924C54.3306 48.9354 54.2007 47.6757 53.3436 46.9789L52.0819 48.5308ZM52.0819 48.5308H52.0819L53.3436 46.9789C52.4865 46.2821 51.2269 46.412 50.5301 47.2691L52.0819 48.5308ZM47.0838 54.6784L52.0819 48.5308L50.5301 47.2691L45.532 53.4168L47.0838 54.6784ZM42.6125 51.0875L45.532 54.6784L47.0838 53.4168L44.1644 49.8258L42.6125 51.0875ZM42.6125 51.0875L42.6125 51.0875L44.1644 49.8258C43.4676 48.9688 42.2079 48.8389 41.3509 49.5357L42.6125 51.0875ZM42.6125 51.0875L42.6125 51.0875L41.3509 49.5357C40.4938 50.2324 40.3639 51.4921 41.0607 52.3492L42.6125 51.0875ZM46.3079 55.6328L42.6125 51.0875L41.0607 52.3492L44.7561 56.8945L46.3079 55.6328ZM46.3079 55.6328L46.3079 55.6328L44.7561 56.8945C45.1358 57.3616 45.7059 57.6328 46.3079 57.6328V55.6328ZM46.3079 55.6328H46.3079V57.6328C46.91 57.6328 47.48 57.3616 47.8597 56.8945L46.3079 55.6328ZM52.0819 48.5308L46.3079 55.6328L47.8597 56.8945L53.6338 49.7924L52.0819 48.5308Z" fill="white" mask="url(#path-3-inside-1_604_3880)"/>
</svg>
