<svg width="88" height="85" viewBox="0 0 88 85" fill="none" xmlns="http://www.w3.org/2000/svg">
<path d="M3.14888 0.5H3.14889H84.851C85.5033 0.500026 86.0081 0.715282 86.3485 1.05569C86.6889 1.39609 86.9042 1.90083 86.9042 2.55319V52.5957V63.8298C86.9042 64.4821 86.6889 64.9869 86.3485 65.3273C86.0081 65.6677 85.5033 65.883 84.851 65.883H50.8936H37.1063H3.14889C2.49656 65.883 1.9918 65.6677 1.65138 65.3273C1.31097 64.9869 1.0957 64.4821 1.0957 63.8298V52.5957V2.55327C1.0957 2.55325 1.0957 2.55322 1.0957 2.55319C1.09583 1.9008 1.31106 1.39603 1.65141 1.05563C1.99175 0.715239 2.49642 0.499976 3.14888 0.5Z" stroke="white"/>
<path d="M37.1063 77.1064V66.1277H50.8936V77.1064M37.1063 77.1064H50.8936M37.1063 77.1064H33.0212C29.1914 77.1064 26.8936 80.6809 26.8936 84H61.1063C61.1063 79.9149 58.5531 77.1064 54.9787 77.1064C51.4042 77.1064 50.8936 77.1064 50.8936 77.1064" stroke="white"/>
<path d="M37.1064 59.2341H47.5745M53.9575 59.2341H54.9788" stroke="white"/>
<path d="M13.3612 52.5957V25.5319M13.3612 52.5957H0.850586M13.3612 52.5957H20.2548M13.3612 25.5319H20.2548M13.3612 25.5319L20.2548 11.7446L27.1485 25.5319M27.1485 25.5319V52.5957M27.1485 25.5319H20.2548M27.1485 52.5957H20.2548M27.1485 52.5957H38.6378M87.1484 52.5957H74.6378M20.2548 25.5319V52.5957M38.6378 52.5957H43.9995H49.3612M38.6378 52.5957C38.6553 50.0142 38.6976 47.7907 38.7996 45.7021M40.6804 31.6595C43.2721 32.7373 44.7256 32.6797 47.3187 31.6595M40.6804 31.6595C39.528 37.2384 39.0218 41.1496 38.7996 45.7021M40.6804 31.6595C37.3612 29.617 36.5953 25.5319 38.3825 21.7021L43.9995 11.7446L49.8719 21.7021C52.425 27.0638 49.8719 29.8723 47.3187 31.6595M47.3187 31.6595C48.3919 37.2574 48.921 41.171 49.1698 45.7021M49.3612 52.5957C49.3398 50.0155 49.2847 47.793 49.1698 45.7021M49.3612 52.5957H60.8506M38.7996 45.7021H49.1698M60.8506 52.5957V11.7446H74.6378V18.6382M60.8506 52.5957H74.6378M74.6378 52.5957V45.7021M74.6378 45.7021H70.808M74.6378 45.7021V35.4893M74.6378 35.4893H70.808M74.6378 35.4893V27.0638M74.6378 27.0638H70.808M74.6378 27.0638V18.6382M74.6378 18.6382H70.808" stroke="white"/>
</svg>
